<?xml version="1.0" encoding="utf-8"?>
<!-- Generator: Adobe Illustrator 21.1.0, SVG Export Plug-In . SVG Version: 6.00 Build 0)  -->
<svg version="1.1" id="Layer_1" xmlns="http://www.w3.org/2000/svg" xmlns:xlink="http://www.w3.org/1999/xlink" x="0px" y="0px"
	 viewBox="0 0 200 100" style="enable-background:new 0 0 200 100;" xml:space="preserve">
<style type="text/css">
	.st0{fill-rule:evenodd;clip-rule:evenodd;fill:#0B996B;}
	.st1{fill-rule:evenodd;clip-rule:evenodd;fill:#1B6936;}
	.st2{fill-rule:evenodd;clip-rule:evenodd;fill:#95C897;}
	.st3{fill-rule:evenodd;clip-rule:evenodd;fill:#036635;}
	.st4{fill-rule:evenodd;clip-rule:evenodd;fill:#231F20;}
	.st5{fill:#231F20;}
</style>
<g>
	<g>
		<path class="st0" d="M91,54.4c1,1.3,2.2,2.5,3.4,3.5c-0.2,0.2-0.4,0.4-0.5,0.6l-2.7,4.7c-0.7,1.2-0.3,2.6,0.9,3.3l1.3,0.8
			c1.1,0.7,2.6,0.3,3.2-0.9l2.7-4.7c0.2-0.3,0.2-0.5,0.3-0.8c1.2,0.5,2.4,0.8,3.7,1.1c-0.1,0.3-0.2,0.6-0.2,1l0,5.4
			c0,1.3,1,2.4,2.4,2.4h1.5c1.3,0,2.4-1.1,2.4-2.4l0-5.4c0-0.3,0-0.5-0.1-0.8c1.5-0.2,3.1-0.5,4.6-1.1c0,0.3,0.1,0.5,0.3,0.8
			l2.7,4.7c0.7,1.2,2.1,1.6,3.2,0.9l1.3-0.8c1.1-0.7,1.5-2.1,0.9-3.3l-2.7-4.7c-0.1-0.2-0.2-0.3-0.3-0.5c1.4-1,2.6-2.2,3.6-3.5
			c0.2,0.3,0.5,0.5,0.8,0.7l4.6,2.7c1.1,0.7,2.6,0.3,3.3-0.9l0.7-1.3c0.7-1.2,0.3-2.6-0.9-3.3l-4.6-2.7c-0.3-0.2-0.6-0.3-0.9-0.3
			c0.6-1.5,1.1-3,1.3-4.6c0.2,0.1,0.5,0.1,0.8,0.1l5.3,0c1.3,0,2.4-1.1,2.4-2.4v-1.5c0-1.3-1.1-2.4-2.4-2.4h-5.3
			c-0.2,0-0.5,0-0.7,0.1c-0.2-1.6-0.6-3.2-1.2-4.8c0.2,0,0.5-0.1,0.7-0.3l4.6-2.7c1.1-0.7,1.5-2.1,0.9-3.3l-0.7-1.3
			c-0.7-1.1-2.1-1.5-3.2-0.9l-4.6,2.7c-0.2,0.1-0.4,0.3-0.5,0.4c-1-1.4-2.2-2.6-3.5-3.6c0.3-0.2,0.5-0.5,0.7-0.8l2.7-4.7
			c0.7-1.1,0.3-2.6-0.9-3.3l-1.3-0.7c-1.1-0.7-2.6-0.3-3.2,0.9l-2.7,4.7c-0.2,0.3-0.3,0.7-0.3,1c-1.7-0.7-3.5-1.1-5.4-1.3
			c0.1-0.3,0.2-0.6,0.2-1l0-5.4c0-1.3-1-2.4-2.3-2.4h-1.5c-1.3,0-2.3,1.1-2.4,2.4l0,5.4c0,0.4,0.1,0.8,0.3,1.2
			c-1.4,0.3-2.7,0.7-4.1,1.2c-0.1-0.2-0.1-0.4-0.2-0.6l-2.6-4.6c-0.6-1.1-2.1-1.5-3.2-0.9L92,17.2c-1.1,0.7-1.5,2.1-0.9,3.3l2.6,4.7
			c0.1,0.2,0.3,0.4,0.4,0.6c-1.3,1.1-2.5,2.3-3.5,3.7c-0.2-0.3-0.5-0.6-0.9-0.9l-4.6-2.7c-1.1-0.7-2.6-0.3-3.2,0.9L81.4,28
			c-0.7,1.1-0.3,2.6,0.8,3.3l4.6,2.7c0.4,0.2,0.9,0.3,1.3,0.3c-0.6,1.7-1.1,3.5-1.3,5.4c-0.3-0.1-0.5-0.2-0.8-0.2l-5.3,0
			c-1.3,0-2.4,1.1-2.4,2.4l0,1.5c0,1.3,1,2.4,2.3,2.4l5.3,0c0.4,0,0.8-0.1,1.1-0.3c0.2,1.3,0.6,2.5,1.1,3.7c-0.3,0-0.6,0.1-0.9,0.3
			l-4.6,2.7c-1.1,0.7-1.5,2.1-0.9,3.3l0.7,1.3c0.6,1.1,2.1,1.5,3.2,0.9l4.6-2.7C90.6,54.8,90.8,54.6,91,54.4z M96.5,48
			c-3.3-5.8-1.3-13.2,4.4-16.6c5.7-3.4,13-1.4,16.3,4.4c3.3,5.8,1.3,13.3-4.4,16.6C107.1,55.8,99.8,53.8,96.5,48z"/>
		<path class="st1" d="M70.7,33.1c3.4-14,6.6-19.3,7.5-21.3C79.1,9.8,82,5.8,86,5c4.1-0.8,9.8,1.6,10.3,1.9c0.5,0.2,5.3,2,7.3,5.2
			c2,3.2,1.8,7.4-0.3,12.6c-2.2,5.4-5.1,9.8-6.1,12c-0.7,1.7-1.2,4.4-0.9,10.4c0.3,6-0.2,10.8-2.2,13.8c-1.9,2.7-5.5,4.8-11.8,4.7
			c-6.3-0.1-9.2-3-10.9-5.9C69.5,56.3,67.3,47.1,70.7,33.1z"/>
		<path class="st2" d="M73.4,32.8c3.2-12.8,5.8-17.3,6.7-19c1.1-2.1,2.8-5.2,6.2-5.9c3.4-0.7,8.2,1.3,8.6,1.5
			c0.4,0.2,4.7,1.7,6.4,4.5c1.7,2.8,1.1,6.6-0.8,11.1c-2,4.8-4.6,8.8-5.4,10.7c-0.6,1.5-1.4,4.1-1.1,9.4c0.2,5.3,0,11.2-1.7,13.9
			c-1.6,2.3-4.3,4.2-9.6,4.1c-5.3-0.1-7.7-2.6-9.2-5.2C71.8,54.9,70.3,45.1,73.4,32.8z"/>
		<g>
			<path class="st3" d="M86.3,21.2c0.1,0.5,0.3,0.9,0.5,1.3c-0.1,0-0.1,0.1-0.2,0.1l-1.2,0.9c-0.3,0.2-0.4,0.7-0.1,1l0.3,0.3
				c0.2,0.3,0.7,0.4,1,0.1l1.2-0.9c0.1-0.1,0.1-0.1,0.2-0.2c0.3,0.3,0.6,0.5,0.9,0.7c-0.1,0.1-0.1,0.1-0.2,0.2L88,26.3
				c-0.1,0.4,0,0.8,0.4,0.9l0.4,0.2c0.4,0.1,0.8,0,0.9-0.4l0.6-1.4c0-0.1,0-0.1,0.1-0.2c0.4,0.1,0.9,0.2,1.3,0.2c0,0.1,0,0.2,0,0.2
				l0.2,1.5c0,0.4,0.4,0.6,0.8,0.6l0.4-0.1c0.4,0,0.6-0.4,0.6-0.8l-0.2-1.5c0-0.1,0-0.1,0-0.2c0.5-0.1,0.9-0.3,1.3-0.5
				c0,0.1,0.1,0.2,0.1,0.3l0.9,1.2c0.2,0.3,0.7,0.4,1,0.1l0.3-0.3c0.3-0.2,0.4-0.7,0.1-1l-0.9-1.2C96.2,24,96.1,24,96,23.9
				c0.3-0.3,0.6-0.7,0.9-1.1c0.1,0.1,0.1,0.1,0.2,0.1l1.4,0.6c0.4,0.1,0.7,0,0.9-0.4l0.2-0.4c0.1-0.3,0-0.7-0.4-0.9l-1.4-0.6
				c-0.1,0-0.1,0-0.2-0.1c0.1-0.5,0.2-0.9,0.2-1.4c0.1,0,0.1,0,0.2,0l1.5-0.2c0.4,0,0.6-0.4,0.6-0.8l-0.1-0.4c0-0.4-0.4-0.6-0.8-0.6
				l-1.5,0.2c-0.1,0-0.1,0-0.2,0.1c-0.1-0.5-0.3-0.9-0.5-1.4c0.1,0,0.2-0.1,0.3-0.1l1.2-0.9c0.3-0.2,0.4-0.7,0.1-1l-0.3-0.4
				c-0.2-0.3-0.7-0.4-1-0.1l-1.2,0.9c-0.1,0.1-0.2,0.1-0.2,0.2c-0.4-0.4-0.8-0.7-1.3-1c0.1-0.1,0.1-0.1,0.2-0.2l0.6-1.4
				c0.1-0.4,0-0.8-0.4-0.9l-0.4-0.2c-0.3-0.2-0.7,0-0.9,0.4l-0.6,1.4c0,0.1-0.1,0.2,0,0.3c-0.4-0.1-0.8-0.1-1.2-0.1
				c0-0.1,0-0.1,0-0.2L91.8,12c0-0.4-0.4-0.6-0.8-0.6l-0.4,0.1c-0.4,0-0.6,0.4-0.6,0.8l0.2,1.5c0,0.1,0,0.1,0.1,0.2
				c-0.5,0.1-0.9,0.3-1.3,0.6c0-0.1-0.1-0.2-0.1-0.3L87.8,13c-0.2-0.3-0.7-0.4-1-0.1l-0.3,0.3c-0.3,0.2-0.4,0.7-0.1,1l0.9,1.2
				c0.1,0.1,0.2,0.2,0.3,0.2c-0.4,0.4-0.7,0.8-0.9,1.3c-0.1-0.1-0.1-0.1-0.2-0.1l-1.4-0.6c-0.3-0.1-0.7,0-0.9,0.4l-0.2,0.4
				c-0.1,0.3,0,0.7,0.4,0.9l1.4,0.6c0.1,0,0.2,0.1,0.3,0.1c-0.1,0.4-0.1,0.7-0.1,1.1c-0.1,0-0.2,0-0.3,0l-1.5,0.2
				c-0.4,0-0.6,0.4-0.6,0.8l0,0.4c0.1,0.4,0.4,0.6,0.8,0.6l1.5-0.2C86.1,21.3,86.2,21.3,86.3,21.2z"/>
			<path class="st0" d="M88.4,20.2c-0.2-1.9,1.1-3.7,3-3.9c1.9-0.2,3.6,1.1,3.9,3c0.2,1.9-1.1,3.7-3,3.9
				C90.4,23.5,88.7,22.1,88.4,20.2z"/>
		</g>
		<g>
			<g>
				<path class="st3" d="M78,27.7c-0.4-1.7,0.6-3.5,2.3-3.9c1.7-0.4,3.5,0.7,3.9,2.4c0.4,1.7-0.7,3.4-2.4,3.8
					C80.1,30.4,78.4,29.4,78,27.7z"/>
				<path class="st3" d="M84.1,25.7l0.8-0.2c0.2,0,0.4,0.1,0.5,0.3l0,0.2c0,0.2-0.1,0.4-0.3,0.5l-0.8,0.2c-0.2,0-0.4-0.1-0.4-0.3
					l-0.1-0.2C83.8,26,83.9,25.8,84.1,25.7z"/>
				<path class="st3" d="M76.9,27.4l0.8-0.2c0.2,0,0.4,0.1,0.4,0.3l0.1,0.2c0.1,0.2-0.1,0.4-0.3,0.4l-0.8,0.2
					c-0.2,0.1-0.4-0.1-0.4-0.3l-0.1-0.2C76.6,27.6,76.7,27.4,76.9,27.4z"/>
				<path class="st3" d="M82.2,30l0.2,0.8c0,0.2-0.1,0.4-0.3,0.4l-0.2,0c-0.2,0-0.4-0.1-0.4-0.3l-0.2-0.8c0-0.2,0.1-0.4,0.3-0.4
					l0.2,0C81.9,29.7,82.1,29.8,82.2,30z"/>
				<path class="st3" d="M80.5,22.8l0.2,0.8c0.1,0.2-0.1,0.4-0.3,0.5l-0.2,0c-0.2,0.1-0.4-0.1-0.5-0.3L79.6,23
					c0-0.2,0.1-0.4,0.3-0.5l0.2-0.1C80.3,22.4,80.5,22.5,80.5,22.8z"/>
				<path class="st3" d="M77.2,25.4l0.8,0.2c0.2,0.1,0.3,0.3,0.3,0.5l-0.1,0.2c-0.1,0.2-0.3,0.3-0.5,0.2l-0.8-0.2
					c-0.2-0.1-0.3-0.3-0.3-0.5l0.1-0.2C76.8,25.5,77,25.3,77.2,25.4z"/>
				<path class="st3" d="M78.4,23.5l0.6,0.6c0.1,0.2,0.1,0.4,0,0.5l-0.2,0.2c-0.1,0.1-0.4,0.1-0.5,0l-0.6-0.6
					c-0.1-0.2-0.1-0.4,0-0.5l0.2-0.2C78.1,23.4,78.3,23.4,78.4,23.5z"/>
				<path class="st3" d="M83.6,29.1l0.6,0.6c0.1,0.2,0.1,0.4,0,0.5L84,30.4c-0.1,0.1-0.4,0.1-0.5,0l-0.6-0.6c-0.1-0.1-0.1-0.4,0-0.5
					l0.2-0.2C83.2,28.9,83.5,28.9,83.6,29.1z"/>
				<path class="st3" d="M79.1,29.5l-0.6,0.6c-0.1,0.1-0.4,0.1-0.5,0l-0.2-0.2c-0.1-0.1-0.1-0.4,0-0.5l0.6-0.6
					c0.1-0.1,0.4-0.1,0.5,0l0.2,0.2C79.2,29.2,79.2,29.4,79.1,29.5z"/>
				<path class="st3" d="M84.4,24.4L83.8,25c-0.1,0.1-0.4,0.1-0.5,0l-0.2-0.2c-0.1-0.2-0.1-0.4,0-0.5l0.6-0.6c0.2-0.1,0.4-0.1,0.5,0
					l0.2,0.2C84.6,24,84.6,24.2,84.4,24.4z"/>
				<path class="st3" d="M84.3,27.5l0.8,0.2c0.2,0.1,0.3,0.3,0.2,0.5l-0.1,0.2c-0.1,0.2-0.3,0.3-0.5,0.3L84,28.4
					c-0.2-0.1-0.3-0.3-0.2-0.5l0.1-0.2C83.9,27.5,84.1,27.4,84.3,27.5z"/>
				<path class="st3" d="M82.6,23l-0.2,0.8c-0.1,0.2-0.3,0.3-0.5,0.3L81.7,24c-0.2-0.1-0.3-0.3-0.3-0.5l0.2-0.8
					c0.1-0.2,0.3-0.3,0.5-0.3l0.2,0.1C82.6,22.5,82.7,22.8,82.6,23z"/>
				<path class="st3" d="M80.5,30.2L80.2,31c-0.1,0.2-0.3,0.3-0.5,0.2l-0.2-0.1c-0.2-0.1-0.3-0.3-0.2-0.4l0.2-0.8
					c0.1-0.2,0.3-0.3,0.5-0.2l0.2,0.1C80.4,29.8,80.5,30,80.5,30.2z"/>
			</g>
			<path class="st0" d="M79.2,27.4c-0.2-1,0.4-2,1.4-2.3c1-0.2,2,0.4,2.3,1.4c0.2,1-0.4,2-1.4,2.3C80.5,29,79.4,28.4,79.2,27.4z"/>
		</g>
		<path class="st4" d="M60.9,37.8c0.1,0.2,0.3,0.3,0.4,0.5c0,0,0,0-0.1,0.1L60.9,39c-0.1,0.1,0,0.3,0.1,0.4l0.2,0.1
			c0.1,0.1,0.3,0.1,0.4-0.1l0.4-0.6c0,0,0-0.1,0-0.1c0.2,0.1,0.3,0.1,0.5,0.2c0,0,0,0.1,0,0.1l0,0.7c0,0.2,0.1,0.3,0.3,0.3l0.2,0
			c0.2,0,0.3-0.1,0.3-0.3l0-0.7c0,0,0-0.1,0-0.1c0.2,0,0.4,0,0.6-0.1c0,0,0,0.1,0,0.1l0.3,0.6c0.1,0.1,0.3,0.2,0.4,0.1l0.2-0.1
			c0.2-0.1,0.2-0.3,0.1-0.4l-0.3-0.6c0,0,0,0,0-0.1c0.2-0.1,0.4-0.3,0.5-0.4c0,0,0.1,0.1,0.1,0.1l0.6,0.4c0.1,0.1,0.3,0.1,0.4-0.1
			l0.1-0.2c0.1-0.1,0.1-0.3-0.1-0.4l-0.6-0.4c0,0-0.1,0-0.1,0c0.1-0.2,0.2-0.4,0.2-0.6c0,0,0.1,0,0.1,0l0.7,0c0.2,0,0.3-0.1,0.3-0.3
			l0-0.2c0-0.2-0.1-0.3-0.3-0.3l-0.7,0c0,0-0.1,0-0.1,0c0-0.2-0.1-0.4-0.1-0.6c0,0,0.1,0,0.1,0l0.7-0.3c0.2-0.1,0.2-0.3,0.1-0.4
			l-0.1-0.2c-0.1-0.2-0.3-0.2-0.4-0.1l-0.6,0.3c0,0,0,0-0.1,0.1c-0.1-0.2-0.3-0.3-0.5-0.5c0,0,0.1-0.1,0.1-0.1l0.4-0.6
			c0.1-0.1,0.1-0.3-0.1-0.4L64.9,33c-0.1-0.1-0.3,0-0.4,0.1l-0.4,0.6c0,0-0.1,0.1-0.1,0.1c-0.2-0.1-0.5-0.2-0.7-0.2c0,0,0-0.1,0-0.1
			l0-0.7c0-0.2-0.1-0.3-0.3-0.3h-0.2c-0.2,0-0.3,0.1-0.3,0.3l0,0.7c0,0.1,0,0.1,0,0.2c-0.2,0-0.4,0.1-0.5,0.2c0,0,0-0.1,0-0.1
			l-0.3-0.6c-0.1-0.1-0.3-0.2-0.4-0.1l-0.2,0.1c-0.1,0.1-0.2,0.3-0.1,0.4l0.3,0.6c0,0,0,0.1,0.1,0.1c-0.2,0.1-0.3,0.3-0.5,0.5
			c0,0-0.1-0.1-0.1-0.1l-0.6-0.3c-0.1-0.1-0.3,0-0.4,0.1l-0.1,0.2c-0.1,0.1,0,0.3,0.1,0.4l0.6,0.4c0.1,0,0.1,0,0.2,0
			c-0.1,0.2-0.1,0.4-0.2,0.7c0,0-0.1,0-0.1,0l-0.7,0c-0.2,0-0.3,0.1-0.3,0.3v0.2c0,0.2,0.1,0.3,0.3,0.3l0.7,0c0,0,0.1,0,0.1,0
			c0,0.2,0.1,0.3,0.1,0.5c0,0-0.1,0-0.1,0l-0.6,0.3c-0.1,0.1-0.2,0.2-0.1,0.4l0.1,0.2c0.1,0.1,0.3,0.2,0.4,0.1L60.9,37.8
			C60.8,37.9,60.8,37.9,60.9,37.8z M61.6,37.1c-0.4-0.7-0.1-1.7,0.6-2.1c0.8-0.4,1.7-0.2,2.1,0.6c0.4,0.8,0.1,1.7-0.7,2.1
			C62.9,38.1,62,37.8,61.6,37.1z"/>
		<rect x="60.2" y="41.1" class="st4" width="5.5" height="9.5"/>
		<g>
			<polygon class="st4" points="100.2,33.2 114.6,33.2 114.6,36.9 105.6,36.9 105.6,39.7 113.8,39.7 113.8,43.3 105.6,43.3 
				105.6,46.6 114.7,46.7 114.7,50.6 100.2,50.6 			"/>
			<polygon class="st4" points="121.2,50.6 121.2,33.2 128.3,33.2 130.9,43.9 133.7,33.2 140.7,33.2 140.7,50.6 136.3,50.6 
				136.3,37 132.9,50.6 128.9,50.6 125.7,37.5 125.6,50.6 			"/>
			<g>
				<path class="st4" d="M86.3,38.8l5.1-1c0,0-0.4-2.6-2.8-4c-1.5-0.9-5.3-1.5-8.2-0.7c-1.7,0.4-4.9,1.1-6.1,6.7
					c-1,5.1,1.5,8.5,3,9.5c1.9,1.2,4.6,1.9,9.1,1.3c0.6-0.1,1.2-0.3,1.8-0.5c1.9-0.8,3.5-2.4,3.5-3.1c0-1,0-6.3,0-6.3l-8.2,0v3.6
					l3.6,0l0,1.6c0,0-1.6,1.3-3.9,1.1c-2.3-0.2-3.4-1.8-3.6-3.6c-0.2-1.6,0-5.2,1.7-6.1c1.6-0.8,3.3-0.8,4.2,0
					C86.2,38.1,86.3,38.8,86.3,38.8z"/>
				<path class="st4" d="M91.6,48.1v-1.8l-4.8,2.2l1.9,1.3c0,0,1-0.5,1.5-0.8C90.8,48.7,91.5,48.2,91.6,48.1z"/>
			</g>
		</g>
	</g>
	<g>
		<path class="st5" d="M81.9,85.5c0,1.7-0.9,3.2-2.6,4.5c-1.7,1.3-2.6,2.3-2.7,3.2h5.3V95h-7.4v-1.4c0.2-1.5,1.2-3,2.9-4.4
			c1.8-1.4,2.6-2.6,2.6-3.7c0-1.2-0.6-1.9-1.9-1.9c-1.2,0-1.9,0.7-1.9,2.2l-1.8-0.4c0.2-2.5,1.4-3.7,3.7-3.7
			C80.6,81.8,81.9,83,81.9,85.5z"/>
		<path class="st5" d="M96.7,86.3v4.3c0,3.1-1.2,4.6-3.7,4.6c-2.5,0-3.7-1.5-3.7-4.6v-4.3c0-3,1.2-4.5,3.7-4.5
			C95.5,81.8,96.7,83.3,96.7,86.3z M93,83.6c-1.2,0-1.9,0.9-1.9,2.6v4.3c0,1.9,0.6,2.8,1.9,2.8c1.2,0,1.9-0.9,1.9-2.8v-4.3
			C94.9,84.5,94.3,83.6,93,83.6z"/>
		<path class="st5" d="M105.1,85.7v-1.9c0.6,0,1.4-0.6,2.3-1.9h1.9v13h-1.9V84.3C106.7,85.2,105.9,85.7,105.1,85.7z"/>
		<path class="st5" d="M117.8,85.7c0-2.5,1.2-3.7,3.7-3.7c2.5,0,3.8,1.2,3.8,3.7c0,1.3-0.5,2.3-1.4,2.8c1.1,0.5,1.6,1.4,1.6,2.8
			c0,2.5-1.3,3.7-4,3.7c-2.6,0-3.9-1.2-3.9-3.7c0-1.4,0.5-2.3,1.6-2.8C118.3,87.9,117.8,87,117.8,85.7z M123.7,91.3
			c0-1.4-0.7-2-2.1-2c-1.4,0-2,0.7-2,2c0,1.2,0.7,1.9,2,1.9C123,93.1,123.7,92.5,123.7,91.3z M123.5,85.7c0-1.2-0.7-1.9-2-1.9
			c-1.2,0-1.9,0.6-1.9,1.9c0,1.4,0.6,2,1.9,2C122.9,87.7,123.5,87,123.5,85.7z"/>
	</g>
</g>
</svg>
