<?xml version="1.0" encoding="utf-8"?>
<svg height="115px" enable-background="new 0 0 200 100" version="1.1" viewBox="0 0 200 100" xml:space="preserve" xmlns="http://www.w3.org/2000/svg">
    <style type="text/css"> .st0{stroke:#E1DDE1;stroke-miterlimit:10;} .st1{fill:#0B996B;} .st2{fill:#1B6936;} .st3{fill:#95C897;} .st4{fill:#036635;} .st5{fill:#231F20;}</style>
    <path class="st0" d="m70.9 83.4c0 0.5-0.2 1.1-0.5 1.7s-0.7 1.2-1.3 1.7c-0.6 0.6-1.1 1.1-1.6 1.5s-1.1 1-1.6 1.4c-0.6 0.5-1 0.9-1.2 1.1h5.5c0.1 0 0.2 0.1 0.2 0.1 0.1 0.1 0.1 0.1 0.1 0.2v3.1c0 0.1-0.1 0.2-0.1 0.2-0.1 0.1-0.2 0.1-0.2 0.1h-10.8c-0.1 0-0.2-0.1-0.2-0.1-0.1-0.1-0.1-0.1-0.1-0.2v-3.2c0-0.1 0-0.1 0.1-0.2 0.9-1.1 1.8-2.2 2.9-3.1 0.2-0.2 0.6-0.5 1.1-0.9s0.9-0.7 1.1-1c0.3-0.2 0.6-0.5 0.9-0.8s0.5-0.6 0.7-0.9c0.1-0.3 0.2-0.5 0.2-0.7 0-0.3-0.1-0.5-0.2-0.7-0.2-0.2-0.4-0.3-0.6-0.3-0.3-0.1-0.5-0.1-0.6-0.1s-0.3 0-0.3 0c-1.4 0.1-2.7 0.2-3.8 0.4-0.1 0-0.2 0-0.3-0.1s-0.1-0.1-0.1-0.2l-0.4-3.2c0-0.1 0-0.2 0.1-0.2 0.1-0.1 0.1-0.1 0.2-0.1 1.7-0.1 3.4-0.2 4.9-0.2 0.3 0 0.7 0 1.1 0.1 0.3 0.1 0.7 0.1 1.1 0.2s0.8 0.2 1.1 0.3c0.3 0.2 0.7 0.3 1 0.6 0.3 0.2 0.6 0.5 0.9 0.9 0.2 0.3 0.5 0.7 0.6 1.1 0 0.5 0.1 1 0.1 1.5z"></path>
    <path class="st0" d="m85.2 79.3c0.9-0.3 1.8-0.5 2.7-0.5 1 0 1.9 0.2 2.7 0.5 0.9 0.3 1.6 0.9 2.2 1.5 0.6 0.7 1.1 1.5 1.5 2.6 0.3 1 0.6 2.2 0.6 3.5s-0.2 2.5-0.6 3.5c-0.3 1-0.9 1.9-1.5 2.6s-1.4 1.2-2.2 1.5c-0.9 0.3-1.8 0.5-2.7 0.5-1 0-1.9-0.2-2.7-0.5-0.9-0.3-1.6-0.9-2.2-1.5-0.6-0.7-1.1-1.5-1.5-2.6-0.3-1-0.6-2.2-0.6-3.5s0.2-2.5 0.6-3.5c0.3-1 0.9-1.9 1.5-2.6 0.7-0.6 1.4-1.1 2.2-1.5zm1.2 10.4c0.4 0.7 0.9 1 1.5 1s1.1-0.3 1.5-1 0.6-1.6 0.6-2.8-0.2-2.1-0.6-2.8-0.9-1-1.5-1-1.1 0.3-1.5 1-0.6 1.6-0.6 2.8 0.3 2.1 0.6 2.8z"></path>
    <path class="st0" d="m116.9 83.4c0 0.5-0.2 1.1-0.5 1.7s-0.7 1.2-1.3 1.7c-0.6 0.6-1.1 1.1-1.6 1.5s-1.1 1-1.6 1.4c-0.6 0.5-1 0.9-1.2 1.1h5.5c0.1 0 0.2 0.1 0.2 0.1s0.1 0.1 0.1 0.2v3.1c0 0.1-0.1 0.2-0.1 0.2l-0.2 0.1h-10.7c-0.1 0-0.2-0.1-0.2-0.1-0.1-0.1-0.1-0.1-0.1-0.2v-3.2c0-0.1 0-0.1 0.1-0.2 0.9-1.1 1.8-2.2 2.9-3.1 0.2-0.2 0.6-0.5 1.1-0.9s0.9-0.7 1.1-1c0.3-0.2 0.6-0.5 0.9-0.8s0.5-0.6 0.7-0.9c0.1-0.3 0.2-0.5 0.2-0.7 0-0.3-0.1-0.5-0.2-0.7-0.2-0.2-0.4-0.3-0.6-0.3-0.3-0.1-0.5-0.1-0.6-0.1s-0.3 0-0.3 0c-1.4 0.1-2.7 0.2-3.8 0.4-0.1 0-0.2 0-0.3-0.1s-0.1-0.1-0.1-0.2l-0.4-3.2c0-0.1 0-0.2 0.1-0.2 0.1-0.1 0.1-0.1 0.2-0.1 1.7-0.1 3.4-0.2 4.9-0.2 0.3 0 0.7 0 1.1 0.1 0.3 0.1 0.7 0.1 1.1 0.2s0.8 0.2 1.1 0.3c0.3 0.2 0.7 0.3 1 0.6 0.3 0.2 0.6 0.5 0.9 0.9 0.2 0.3 0.5 0.7 0.6 1.1-0.1 0.5 0 1 0 1.5z"></path>
    <path class="st0" d="m131.2 79.3c0.9-0.3 1.8-0.5 2.7-0.5 1 0 1.9 0.2 2.7 0.5 0.9 0.3 1.6 0.9 2.2 1.5 0.6 0.7 1.1 1.5 1.5 2.6s0.6 2.2 0.6 3.5-0.2 2.5-0.6 3.5c-0.3 1-0.9 1.9-1.5 2.6s-1.4 1.2-2.2 1.5c-0.9 0.3-1.8 0.5-2.7 0.5-1 0-1.9-0.2-2.7-0.5-0.9-0.3-1.6-0.9-2.2-1.5-0.6-0.7-1.1-1.5-1.5-2.6-0.3-1-0.6-2.2-0.6-3.5s0.2-2.5 0.6-3.5c0.3-1 0.9-1.9 1.5-2.6 0.6-0.6 1.4-1.1 2.2-1.5zm1.2 10.4c0.4 0.7 0.9 1 1.5 1s1.1-0.3 1.5-1 0.6-1.6 0.6-2.8-0.2-2.1-0.6-2.8-0.9-1-1.5-1-1.1 0.3-1.5 1-0.6 1.6-0.6 2.8c0.1 1.2 0.2 2.1 0.6 2.8z"></path>
    <path class="st1" d="m90.9 54.3c1 1.3 2.2 2.5 3.5 3.5-0.2 0.2-0.4 0.4-0.5 0.6l-2.7 4.7c-0.7 1.1-0.3 2.6 0.9 3.3l1.3 0.7c1.1 0.7 2.6 0.3 3.2-0.9l2.7-4.7c0.2-0.3 0.2-0.5 0.3-0.8 1.2 0.5 2.4 0.8 3.7 1.1-0.1 0.3-0.2 0.6-0.2 1v5.4c0 1.3 1.1 2.4 2.4 2.4h1.5c1.3 0 2.4-1.1 2.4-2.4v-5.4c0-0.3-0.1-0.5-0.1-0.7 1.5-0.2 3.1-0.5 4.6-1.1 0.1 0.3 0.1 0.5 0.3 0.7l2.7 4.7c0.7 1.1 2.1 1.5 3.2 0.9l1.3-0.7c1.1-0.7 1.5-2.2 0.9-3.3l-2.7-4.7c-0.1-0.2-0.2-0.3-0.3-0.5 1.4-1 2.6-2.2 3.6-3.5 0.2 0.3 0.5 0.6 0.8 0.7l4.7 2.7c1.1 0.7 2.6 0.3 3.3-0.9l0.7-1.3c0.7-1.1 0.3-2.6-0.9-3.3l-4.7-2.7c-0.3-0.2-0.6-0.3-0.9-0.3 0.6-1.5 1.1-3 1.4-4.6 0.2 0.1 0.5 0.1 0.8 0.1h5.4c1.3 0 2.4-1.1 2.4-2.4v-1.5c0-1.3-1.1-2.4-2.4-2.4h-5.5c-0.2 0-0.5 0.1-0.7 0.1-0.2-1.6-0.6-3.2-1.2-4.8 0.2-0.1 0.5-0.1 0.7-0.3l4.7-2.7c1.1-0.7 1.5-2.1 0.9-3.2l-0.7-1.3c-0.7-1.1-2.1-1.5-3.2-0.9l-4.7 2.7c-0.2 0.1-0.3 0.2-0.5 0.4-1-1.4-2.3-2.6-3.6-3.6 0.3-0.2 0.5-0.5 0.7-0.7l2.6-4.4c0.7-1.1 0.3-2.6-0.9-3.2l-1.3-0.7c-1.1-0.6-2.6-0.2-3.2 0.9l-2.7 4.7c-0.2 0.3-0.3 0.7-0.3 1-1.7-0.7-3.6-1.1-5.4-1.3 0.1-0.3 0.2-0.6 0.2-1v-5.4c0-1.3-1-2.4-2.4-2.3h-1.5c-1.3 0-2.4 1.1-2.4 2.4v5.3c0 0.4 0.1 0.8 0.3 1.2-1.4 0.2-2.8 0.6-4.1 1.2-0.1-0.2-0.1-0.4-0.2-0.6l-2.6-4.6c-0.6-1.1-2.1-1.5-3.2-0.9l-1.3 0.8c-1.1 0.7-1.5 2.1-0.9 3.2l2.6 4.6c0.1 0.2 0.3 0.4 0.5 0.6-1.4 1.1-2.5 2.3-3.5 3.7-0.2-0.3-0.5-0.6-0.9-0.9l-4.6-2.7c-1.1-0.7-2.6-0.3-3.2 0.9l-0.7 1.3c-0.7 1.1-0.3 2.6 0.9 3.2l4.6 2.7c0.4 0.2 0.9 0.3 1.3 0.3-0.6 1.7-1.1 3.5-1.3 5.3-0.2-0.1-0.5-0.2-0.9-0.2h-5.3c-1.3 0-2.4 1.1-2.4 2.4v1.5c0 1.3 1 2.4 2.3 2.4h5.3c0.4 0 0.8-0.1 1.1-0.3 0.2 1.3 0.6 2.5 1.1 3.7-0.3 0.1-0.6 0.2-0.9 0.3l-4.6 2.7c-1.1 0.7-1.5 2.1-0.9 3.2l0.7 1.3c0.6 1.1 2.1 1.5 3.2 0.9l4.7-2.7c0.2-0.2 0.5-0.4 0.7-0.6zm5.6-6.4c-3.3-5.7-1.3-13.1 4.4-16.5s13.1-1.4 16.4 4.4c3.3 5.7 1.4 13.2-4.4 16.5-5.8 3.4-13.1 1.4-16.4-4.4z"></path>
    <path class="st2" d="m70.4 33.1c3.4-13.9 6.7-19.2 7.6-21.2s3.8-5.9 7.9-6.7 9.9 1.6 10.4 1.9c0.5 0.2 5.3 2 7.3 5.1 2 3.2 1.8 7.3-0.3 12.6-2.2 5.3-5.2 9.7-6.1 11.9-0.7 1.6-1.2 4.3-0.9 10.4 0.3 6-0.2 10.8-2.3 13.7-1.9 2.6-5.5 4.8-11.8 4.7s-9.2-3-11-5.9c-2-3.4-4.1-12.5-0.8-26.5z"></path>
    <path class="st3" d="m73.2 32.8c3.2-12.7 5.8-17.2 6.7-18.9 1.1-2.1 2.8-5.1 6.2-5.9 3.5-0.7 8.2 1.3 8.7 1.5s4.7 1.6 6.4 4.4 1.1 6.5-0.9 11c-2 4.8-4.7 8.7-5.5 10.7-0.6 1.5-1.4 4.1-1.1 9.3 0.2 5.2 0.1 11.2-1.7 13.8-1.6 2.3-4.4 4.2-9.7 4-5.3-0.1-7.8-2.6-9.2-5.1-1.6-2.8-3-12.6 0.1-24.8z"></path>
    <path class="st4" d="m86.1 21.3c0.1 0.5 0.3 0.9 0.6 1.3-0.1 0-0.1 0.1-0.2 0.1l-1.3 0.9c-0.3 0.2-0.3 0.6-0.1 1l0.3 0.3c0.2 0.3 0.7 0.3 1 0.1l1.3-0.9 0.2-0.2c0.3 0.2 0.6 0.5 0.9 0.7-0.1 0.1-0.1 0.2-0.2 0.2l-0.6 1.4c-0.2 0.3 0 0.7 0.4 0.9l0.4 0.2c0.3 0.2 0.7 0 0.9-0.3l0.6-1.4c0-0.1 0.1-0.1 0.1-0.2 0.5 0.1 0.9 0.2 1.3 0.2v0.2l0.2 1.5c0.1 0.3 0.4 0.6 0.7 0.6l0.5-0.1c0.4-0.1 0.6-0.4 0.6-0.7l-0.2-1.5c0-0.1 0-0.1-0.1-0.2 0.5-0.1 0.9-0.3 1.4-0.5 0 0.1 0.1 0.2 0.1 0.3l0.9 1.3c0.2 0.3 0.7 0.3 1 0.1l0.3-0.3c0.3-0.2 0.3-0.7 0.1-1l-0.9-1.3c-0.2 0.1-0.2 0-0.3 0 0.3-0.3 0.6-0.7 0.9-1 0.1 0.1 0.1 0.1 0.2 0.1l1.4 0.6c0.3 0.2 0.7 0 0.9-0.3l0.2-0.4c0.2-0.3 0-0.7-0.4-0.9l-1.4-0.6c-0.1-0.1-0.1-0.1-0.2-0.1 0.1-0.5 0.2-0.9 0.2-1.4h0.2l1.5-0.2c0.4-0.1 0.6-0.4 0.6-0.7l-0.1-0.4c-0.1-0.4-0.4-0.6-0.7-0.6l-1.5 0.2c-0.1 0-0.1 0-0.2 0.1-0.1-0.5-0.3-0.9-0.6-1.4 0.1 0 0.2-0.1 0.3-0.1l1.3-0.9c0.3-0.2 0.3-0.6 0.1-1l-0.3-0.3c-0.2-0.3-0.7-0.3-1-0.1l-1.3 0.9c-0.1 0.1-0.2 0.1-0.2 0.2-0.4-0.4-0.8-0.7-1.3-1 0.1-0.1 0.1-0.2 0.2-0.2l0.6-1.4c0.2-0.3 0-0.7-0.3-0.9l-0.4-0.2c-0.3-0.2-0.7 0-0.9 0.3l-0.6 1.4c-0.1 0.1-0.1 0.2-0.1 0.3h-1.2v-0.2l-0.2-1.5c-0.1-0.4-0.4-0.6-0.8-0.6l-0.5 0.1c-0.4 0.1-0.6 0.4-0.6 0.7l0.2 1.5c0 0.1 0.1 0.1 0.1 0.2-0.5 0.1-0.9 0.3-1.4 0.6 0-0.1-0.1-0.2-0.1-0.3l-1-1.3c-0.2-0.3-0.7-0.3-1-0.1l-0.3 0.3c-0.3 0.2-0.3 0.7-0.1 1l1 1.3c0.1 0.1 0.2 0.2 0.3 0.2-0.3 0.4-0.7 0.8-0.9 1.3-0.1-0.1-0.1-0.1-0.2-0.1l-1.4-0.9c-0.3-0.2-0.7 0-0.9 0.3l-0.2 0.5c-0.2 0.3 0 0.7 0.3 0.9l1.4 0.6c0.1 0.1 0.2 0.1 0.3 0.1-0.1 0.3-0.1 0.7-0.1 1.1h-0.3l-1.5 0.2c-0.4 0.1-0.6 0.4-0.6 0.7l0.1 0.5c0.1 0.4 0.4 0.6 0.8 0.6l1.5-0.2c0.1-0.1 0.2-0.2 0.3-0.2z"></path>
    <path class="st1" d="m88.3 20.3c-0.2-1.9 1.1-3.6 3-3.9 1.9-0.2 3.6 1.1 3.9 3 0.2 1.9-1.1 3.6-3 3.9-1.9 0.2-3.6-1.1-3.9-3z"></path>
    <path class="st4" d="m77.8 27.7c-0.5-1.7 0.6-3.5 2.3-3.9 1.8-0.4 3.5 0.7 3.9 2.4s-0.7 3.4-2.4 3.8c-1.7 0.5-3.4-0.6-3.8-2.3z"></path>
    <path class="st4" d="m84 25.8l0.9-0.2c0.2-0.1 0.4 0.1 0.5 0.3l0.1 0.2c0.1 0.2-0.1 0.4-0.3 0.5l-0.8 0.2c-0.2 0.1-0.4-0.1-0.5-0.3l-0.1-0.2c-0.1-0.2 0-0.5 0.2-0.5z"></path>
    <path class="st4" d="m76.7 27.4l0.8-0.2c0.2-0.1 0.4 0.1 0.5 0.3l0.1 0.2c0.1 0.2-0.1 0.4-0.3 0.5l-0.8 0.2c-0.2 0.1-0.4-0.1-0.5-0.3l-0.1-0.2c0-0.2 0.1-0.4 0.3-0.5z"></path>
    <path class="st4" d="m82 30.1l0.2 0.8c0.1 0.2-0.1 0.4-0.3 0.5l-0.2 0.1c-0.2 0.1-0.4-0.1-0.5-0.3l-0.2-0.9c-0.1-0.2 0.1-0.4 0.3-0.5l0.2-0.1c0.2 0 0.4 0.1 0.5 0.4z"></path>
    <path class="st4" d="m80.3 22.8l0.2 0.9c0.1 0.2-0.1 0.4-0.3 0.5h-0.2c-0.2 0.1-0.4-0.1-0.5-0.3l-0.2-0.9c-0.1-0.2 0.1-0.4 0.3-0.5l0.2-0.1c0.3 0.1 0.5 0.3 0.5 0.4z"></path>
    <path class="st4" d="m77 25.4l0.8 0.2c0.2 0.1 0.3 0.3 0.3 0.5l-0.1 0.3c-0.1 0.2-0.3 0.3-0.5 0.2l-0.8-0.2c-0.2-0.1-0.3-0.3-0.3-0.5l0.1-0.2c0.1-0.2 0.3-0.3 0.5-0.3z"></path>
    <path class="st4" d="m78.3 23.6l0.6 0.6c0.1 0.2 0.1 0.4 0 0.5l-0.2 0.2c-0.2 0.2-0.4 0.1-0.5 0l-0.6-0.6c-0.1-0.2-0.1-0.4 0-0.5l0.2-0.2c0.1-0.1 0.3-0.1 0.5 0z"></path>
    <path class="st4" d="m83.4 29.1l0.6 0.6c0.1 0.2 0.1 0.4 0 0.5l-0.2 0.2c-0.2 0.1-0.4 0.1-0.5 0l-0.6-0.6c-0.1-0.2-0.1-0.4 0-0.5l0.2-0.2c0.1-0.1 0.4-0.1 0.5 0z"></path>
    <path class="st4" d="m78.8 29.6l-0.6 0.6c-0.2 0.1-0.4 0.1-0.5 0l-0.2-0.2c-0.1-0.2-0.1-0.4 0-0.5l0.6-0.6c0.2-0.1 0.4-0.1 0.5 0l0.2 0.2c0.2 0.1 0.2 0.3 0 0.5z"></path>
    <path class="st4" d="m84.3 24.5l-0.6 0.5c-0.2 0.1-0.4 0.1-0.5 0l-0.2-0.1c-0.1-0.2-0.1-0.4 0-0.5l0.6-0.6c0.2-0.1 0.4-0.1 0.5 0l0.2 0.2c0.1 0.1 0.1 0.3 0 0.5z"></path>
    <path class="st4" d="m84.1 27.6l0.8 0.2c0.2 0.1 0.3 0.3 0.2 0.5l-0.1 0.2c-0.1 0.2-0.3 0.3-0.5 0.2l-0.8-0.2c-0.2-0.1-0.3-0.3-0.2-0.5l0.1-0.2c0.1-0.2 0.4-0.3 0.5-0.2z"></path>
    <path class="st4" d="m82.4 23.1l-0.2 0.8c-0.1 0.2-0.3 0.3-0.5 0.3l-0.2-0.1c-0.2-0.1-0.3-0.3-0.2-0.5l0.2-0.8c0.1-0.2 0.3-0.3 0.5-0.3l0.2 0.1c0.2 0.1 0.3 0.2 0.2 0.5z"></path>
    <path class="st4" d="m80.3 30.2l-0.2 0.8c-0.1 0.2-0.3 0.3-0.5 0.2l-0.2-0.1c-0.2-0.1-0.3-0.2-0.2-0.5l0.2-0.8c0.1-0.2 0.3-0.3 0.5-0.2l0.2 0.1c0.2 0.1 0.2 0.3 0.2 0.5z"></path>
    <path class="st1" d="m79 27.4c-0.2-1 0.4-2 1.4-2.3s2 0.4 2.3 1.4c0.2 1-0.4 2-1.4 2.3s-2.1-0.3-2.3-1.4z"></path>
    <path class="st5" d="m60.6 37.8c0.1 0.2 0.3 0.3 0.5 0.5l-0.1 0.1-0.3 0.6c-0.1 0.1-0.1 0.3 0.1 0.4l0.2 0.1c0.2 0.1 0.3 0.1 0.4-0.1l0.3-0.6 0.1-0.1c0.2 0.1 0.3 0.1 0.5 0.2v0.1 0.7c0 0.2 0.1 0.3 0.3 0.3h0.2c0.2 0 0.3-0.1 0.3-0.3v-0.7-0.1c0.2 0 0.4-0.1 0.6-0.1 0 0 0 0.1 0.1 0.1l0.3 0.6c0.1 0.2 0.3 0.2 0.4 0.1l0.2-0.1c0.2-0.1 0.2-0.3 0.1-0.4l-0.3-0.6s0-0.1-0.1-0.1c0.2-0.1 0.3-0.3 0.5-0.4 0 0.1 0.1 0.1 0.1 0.1l0.6 0.3c0.2 0.1 0.3 0.1 0.5-0.1l0.1-0.2c0.1-0.2 0.1-0.3-0.1-0.5l-0.6-0.4c-0.1 0-0.1-0.1-0.1-0.1 0.1-0.2 0.2-0.4 0.2-0.6h0.8c0.2 0 0.3-0.1 0.3-0.3v-0.2c0-0.2-0.1-0.3-0.3-0.3h-0.7-0.1c0-0.2-0.1-0.4-0.2-0.6 0.1 0 0.1 0 0.1-0.1l0.7-0.3c0.2-0.1 0.2-0.3 0.1-0.4l-0.1-0.2c-0.1-0.2-0.3-0.2-0.5-0.1l-0.7 0.6v0.1c-0.1-0.2-0.3-0.3-0.5-0.5 0.1 0 0.1-0.1 0.1-0.1l0.4-0.6c0.1-0.2 0.1-0.3-0.1-0.5l-0.2-0.1c-0.2-0.1-0.3-0.1-0.5 0.1l-0.4 0.6c0 0.1-0.1 0.1-0.1 0.1-0.2-0.1-0.5-0.2-0.7-0.2v-0.1-0.7c0-0.2-0.1-0.3-0.3-0.3h-0.2c-0.2 0-0.3 0.1-0.3 0.3v0.7c0 0.1 0 0.1 0.1 0.2-0.2 0.1-0.3 0.1-0.5 0.2v-0.1l-0.3-0.6c-0.1-0.2-0.3-0.2-0.4-0.1l-0.2 0.1c-0.1 0.1-0.2 0.3-0.1 0.4l0.3 0.6c0 0.1 0.1 0.1 0.1 0.1l-0.5 0.5c0-0.1-0.1-0.1-0.1-0.1l-0.6-0.3c-0.1-0.1-0.3-0.1-0.4 0.1l-0.1 0.2c-0.1 0.2-0.1 0.3 0.1 0.4l0.6 0.3c0.1 0.1 0.1 0.1 0.2 0.1-0.1 0.2-0.2 0.5-0.2 0.7h-0.1-0.7c-0.2 0-0.3 0.1-0.3 0.3v0.2c0 0.2 0.1 0.3 0.3 0.3h0.7c0.1 0 0.1 0 0.1-0.1 0.1 0.2 0.1 0.3 0.1 0.5-0.1 0-0.1 0-0.1 0.1l-0.6 0.3c-0.1 0.1-0.2 0.2-0.1 0.4l0.1 0.2c0.1 0.2 0.3 0.2 0.4 0.1l0.6-0.6c-0.1 0.1-0.1 0 0 0zm0.7-0.7c-0.4-0.7-0.1-1.6 0.6-2s1.7-0.2 2.2 0.6c0.4 0.7 0.1 1.7-0.7 2.1-0.8 0.3-1.7 0-2.1-0.7z"></path>
    <rect class="st5" x="59.9" y="41.1" width="5.6" height="9.4"></rect>
    <polygon class="st5" points="100.1 33.2 114.6 33.2 114.6 36.9 105.6 36.9 105.6 39.7 113.9 39.7 113.9 43.3 105.6 43.3 105.6 46.5 114.7 46.7 114.7 50.5 100.1 50.5"></polygon>
    <polygon class="st5" points="121.3 50.5 121.3 33.2 128.4 33.2 131.1 43.9 133.9 33.2 140.9 33.2 140.9 50.5 136.5 50.5 136.5 37 133.1 50.5 129.1 50.5 125.8 37.5 125.7 50.5"></polygon>
    <path class="st5" d="m86.2 38.8l5.1-1s-0.5-2.6-2.8-3.9c-1.5-0.9-5.3-1.5-8.3-0.7-1.7 0.5-4.9 1.1-6.1 6.7-1 5.1 1.5 8.4 3.1 9.4 1.9 1.2 4.7 1.9 9.1 1.3 0.6-0.1 1.2-0.3 1.8-0.5 1.9-0.9 3.5-2.4 3.5-3v-6.3h-8.3v3.5h3.6v1.5s-1.6 1.4-3.9 1.1c-2.3-0.2-3.4-1.8-3.6-3.5-0.2-1.6 0.1-5.2 1.6-6 1.6-0.8 3.3-0.8 4.2-0.1 0.9 0.8 1 1.5 1 1.5z"></path>
    <path class="st5" d="m91.5 48v-1.8l-4.8 2.2 1.9 1.3s1-0.5 1.5-0.8c0.6-0.3 1.3-0.8 1.4-0.9z"></path>
</svg>